<svg xmlns="http://www.w3.org/2000/svg" viewBox="0 0 500 500" width="500" height="500">
  <defs>
    <linearGradient id="bg" x1="0" y1="0" x2="0" y2="1">
      <stop offset="0" stop-color="#EEE5D6"/>
      <stop offset="1" stop-color="#DFD0B9"/>
    </linearGradient>
    <linearGradient id="fig" x1="0" y1="0" x2="0" y2="1">
      <stop offset="0" stop-color="#2A2724" stop-opacity="0.95"/>
      <stop offset="1" stop-color="#2A2724" stop-opacity="0.7"/>
    </linearGradient>
  </defs>
  <rect width="500" height="500" fill="url(#bg)"/>
  <!-- soft sparkle marks -->
  <path d="M80 70c1.3 9 7 14.7 16 16-9 1.3-14.7 7-16 16-1.3-9-7-14.7-16-16 9-1.3 14.7-7 16-16Z" fill="#E86642" opacity="0.5"/>
  <path d="M410 50c1 7 5.5 11.5 12.5 12.5-7 1-11.5 5.5-12.5 12.5-1-7-5.5-11.5-12.5-12.5 7-1 11.5-5.5 12.5-12.5Z" fill="#2A2724" opacity="0.15"/>
  <!-- stylized fashion figure -->
  <g transform="translate(250 150)" fill="url(#fig)">
    <circle cx="0" cy="0" r="42.5"/>
    <path d="M-80 70
             C -80 37.5, -37.5 27.5, 0 27.5
             C 37.5 27.5, 80 37.5, 80 70
             L 95 310
             C 50 330, -50 330, -95 310 Z"/>
  </g>
  <!-- label -->
  <text x="250" y="430" text-anchor="middle" font-family="Georgia, serif" font-size="30" fill="#2A2724" opacity="0.85">Spring</text>
  
</svg>